<?xml version="1.0" standalone="no"?>
<!DOCTYPE svg PUBLIC "-//W3C//DTD SVG 20010904//EN"
 "http://www.w3.org/TR/2001/REC-SVG-20010904/DTD/svg10.dtd">
<svg version="1.0" xmlns="http://www.w3.org/2000/svg"
 width="432.000000pt" height="432.000000pt" viewBox="0 0 432.000000 432.000000"
 preserveAspectRatio="xMidYMid meet">
<metadata>
Created by potrace 1.11, written by Peter Selinger 2001-2013
</metadata>
<g transform="translate(0.000000,432.000000) scale(0.100000,-0.100000)"
fill="#000000" stroke="none">
<path d="M0 2160 l0 -1440 720 0 720 0 0 720 0 720 720 0 720 0 0 -720 0 -720
720 0 720 0 -2 1438 -3 1437 -2157 3 -2158 2 0 -1440z m3520 -205 c-6 -8 -9
-18 -6 -23 9 -15 -21 -34 -42 -28 -11 4 -38 -4 -65 -19 -45 -23 -47 -24 -47
-5 0 11 -4 20 -10 20 -6 0 -6 -9 -1 -22 5 -13 13 -23 19 -23 18 0 23 -12 7
-18 -8 -4 -15 -2 -15 2 0 5 -10 9 -22 9 -13 0 -32 2 -43 4 -11 3 -14 3 -7 1 6
-3 12 -8 12 -13 0 -5 8 -11 18 -13 13 -4 12 -5 -5 -6 -12 0 -25 4 -28 9 -8 14
-35 13 -35 -1 0 -6 7 -9 15 -5 8 3 15 1 15 -3 0 -13 -25 -20 -49 -14 -15 4
-21 1 -21 -11 0 -10 -4 -15 -10 -11 -13 8 -2 33 18 39 10 2 0 3 -20 0 -29 -3
-38 0 -38 11 0 8 5 15 11 15 6 0 26 12 45 26 22 17 41 24 55 21 15 -4 19 -2
15 8 -3 10 0 12 11 8 11 -4 14 -2 9 5 -4 7 -1 12 7 12 13 0 13 -4 4 -25 -7
-13 -19 -26 -27 -29 -8 -2 -5 -4 8 -5 12 0 22 -5 22 -11 0 -5 5 -10 10 -10 6
0 8 10 4 24 -7 29 12 59 40 64 10 2 15 -1 12 -6 -10 -16 17 -29 44 -21 14 4
18 7 9 8 -27 2 -17 27 12 29 15 1 38 6 51 11 31 13 32 13 18 -4z m54 -11 c4
-9 -4 -19 -19 -26 -18 -8 -24 -17 -19 -30 4 -13 1 -16 -10 -12 -21 8 -20 24 2
40 10 8 12 13 4 14 -9 0 -10 4 0 19 13 21 33 18 42 -5z m62 1 c14 -13 14 -15
0 -15 -9 0 -16 5 -16 11 0 5 -4 7 -10 4 -18 -11 -11 -25 13 -26 21 -1 21 -1
-3 -8 -33 -10 -38 -6 -32 24 5 28 26 33 48 10z m61 9 c-3 -3 -12 -4 -19 -1 -8
3 -5 6 6 6 11 1 17 -2 13 -5z m48 -14 c3 -6 -1 -7 -9 -4 -18 7 -21 14 -7 14 6
0 13 -4 16 -10z m36 -27 c-12 -20 -14 -14 -5 12 4 9 9 14 11 11 3 -2 0 -13 -6
-23z m49 23 c0 -3 -4 -8 -10 -11 -5 -3 -10 -1 -10 4 0 6 5 11 10 11 6 0 10 -2
10 -4z m70 -20 c0 -2 -7 -7 -16 -10 -8 -3 -12 -2 -9 4 6 10 25 14 25 6z m40
-12 c0 -8 -19 -13 -24 -6 -3 5 1 9 9 9 8 0 15 -2 15 -3z m-477 -40 c-7 -19
-10 -18 -16 5 -3 13 -1 18 9 14 7 -2 10 -11 7 -19z m47 -19 c7 -9 8 -15 2 -15
-5 0 -12 7 -16 15 -3 8 -4 15 -2 15 2 0 9 -7 16 -15z m140 5 c12 -8 10 -9 -7
-7 -12 2 -26 6 -29 10 -11 11 19 8 36 -3z m-500 -44 c-6 -6 -10 -14 -10 -20 0
-5 9 0 20 12 24 25 35 28 27 8 -5 -14 10 -36 25 -36 4 0 8 7 8 15 0 8 5 15 10
15 6 0 10 -4 10 -10 0 -5 8 -7 18 -4 9 3 7 -1 -6 -8 -12 -8 -19 -18 -15 -22 4
-4 -5 -6 -22 -4 -17 2 -29 8 -27 16 3 15 -3 15 -27 0 -22 -13 -17 -50 6 -41
12 5 12 7 2 14 -8 4 -10 11 -6 15 3 4 14 1 23 -7 9 -7 23 -14 31 -15 29 -5 26
-14 -5 -14 -17 0 -33 -4 -37 -10 -3 -5 -12 -7 -20 -3 -9 3 -15 -1 -15 -10 0
-18 21 -17 44 2 10 9 16 9 16 2 0 -13 -55 -43 -64 -34 -3 4 -6 1 -6 -6 0 -9 9
-12 26 -8 19 3 24 1 19 -10 -3 -11 -1 -13 10 -10 8 4 17 2 20 -4 4 -5 10 -7
14 -5 4 3 13 0 21 -6 12 -8 12 -9 -2 -4 -10 3 -18 1 -18 -4 0 -19 31 -10 39
12 7 18 8 19 14 4 4 -11 18 -17 39 -16 74 0 173 -13 186 -26 15 -16 42 -19 42
-5 0 5 -6 11 -12 14 -7 2 15 3 50 2 35 -1 62 2 62 8 0 5 7 4 15 -3 8 -6 19 -9
25 -5 5 3 10 -1 10 -9 0 -22 66 -22 74 -1 4 12 23 15 93 13 49 -1 94 1 101 6
8 5 10 2 6 -8 -4 -11 0 -16 12 -17 42 -3 66 7 49 19 -20 14 -14 29 10 24 14
-2 22 -9 19 -14 -4 -6 6 -8 22 -6 25 3 29 0 27 -20 -2 -13 1 -21 6 -18 5 3 12
-1 15 -9 4 -12 2 -13 -12 -7 -36 19 -60 -17 -24 -37 16 -10 16 -10 -1 -11 -10
0 -25 -7 -34 -15 -8 -9 -18 -14 -20 -11 -3 3 3 13 13 23 17 17 17 18 -10 21
-29 4 -50 -8 -28 -15 22 -8 13 -33 -12 -33 -15 0 -26 7 -29 20 -3 11 -10 20
-16 20 -14 0 -14 -23 -1 -36 7 -7 -1 -10 -25 -10 -29 1 -36 6 -44 29 -11 29
-12 30 -34 21 -23 -8 -9 -51 19 -58 13 -4 24 -11 24 -17 0 -6 -5 -7 -12 -2 -7
4 -15 8 -18 9 -23 4 -40 19 -40 34 0 11 -10 19 -25 22 -31 6 -33 -12 -5 -37
11 -10 17 -22 13 -28 -4 -6 2 -8 15 -5 15 4 22 2 22 -8 0 -8 -3 -14 -6 -14
-14 0 -51 26 -77 54 -20 20 -31 26 -36 18 -5 -9 -12 -8 -27 3 -10 8 -27 15
-37 15 -24 0 -19 -29 7 -44 58 -33 75 -80 31 -84 -13 -1 -27 4 -31 10 -5 8 -2
9 9 5 10 -3 17 -2 17 3 0 6 -4 10 -9 10 -5 0 -7 9 -4 19 5 22 -20 34 -65 31
-15 -1 -47 -1 -72 0 -33 1 -39 4 -22 8 13 4 24 11 25 17 3 16 -29 17 -45 1
-14 -13 -18 -13 -37 0 -11 8 -21 11 -21 6 0 -5 -11 -7 -25 -4 -15 2 -25 0 -25
-7 0 -6 8 -11 19 -11 12 0 20 -9 24 -26 5 -30 -15 -43 -38 -24 -13 11 -14 10
-9 -4 5 -14 15 -16 58 -11 28 3 65 1 81 -5 27 -9 26 -10 -17 -6 -44 3 -65 -7
-36 -16 9 -3 8 -10 -3 -25 -12 -17 -16 -18 -27 -7 -11 12 -9 14 10 14 22 1 22
1 4 15 -26 20 -50 19 -42 -1 3 -8 2 -12 -4 -9 -6 3 -10 -5 -10 -19 0 -14 -4
-26 -9 -26 -5 0 -11 -6 -14 -14 -4 -10 0 -12 14 -9 10 3 17 8 15 12 -2 3 0 15
5 26 7 18 8 17 8 -7 1 -15 6 -30 13 -34 7 -5 8 -3 3 5 -6 10 -3 11 15 1 12 -6
28 -9 35 -6 8 3 16 2 19 -3 4 -6 59 -9 224 -11 22 0 32 -5 32 -15 0 -22 24
-29 51 -14 23 12 23 12 4 21 -16 6 -14 7 8 3 15 -3 27 -2 27 3 0 4 11 9 25 10
14 1 25 -3 25 -8 0 -16 33 -11 65 10 36 24 71 25 105 4 24 -14 24 -15 -16 -9
-31 5 -55 1 -93 -15 -28 -12 -57 -20 -66 -16 -8 3 -15 1 -15 -3 0 -5 18 -11
39 -13 22 -2 39 -1 39 2 -1 18 4 21 17 10 8 -7 15 -9 15 -4 0 5 4 3 8 -4 5 -7
16 -10 26 -6 15 6 15 7 -1 20 -16 12 -13 13 25 9 48 -4 69 18 38 40 -10 8 -13
16 -7 19 12 8 22 -8 31 -48 4 -17 12 -30 19 -28 7 1 10 -2 7 -7 -4 -5 -14 -9
-24 -9 -9 0 -53 -4 -97 -10 -44 -6 -239 -12 -433 -14 l-354 -3 8 -40 c4 -22 7
-50 8 -62 1 -11 4 -19 9 -16 10 6 9 -11 -2 -23 -5 -5 -11 -20 -13 -33 -1 -14
-9 -27 -17 -29 -9 -3 -12 0 -9 10 9 22 -28 41 -53 28 -11 -6 -17 -16 -13 -22
4 -7 10 -5 16 6 5 9 14 16 19 16 6 0 7 -5 3 -12 -4 -7 -3 -8 4 -4 8 5 12 0 12
-13 0 -17 6 -20 45 -19 25 0 53 -6 62 -13 15 -12 16 -12 10 4 -3 9 -3 17 2 17
5 0 11 -8 14 -18 2 -11 14 -21 26 -25 14 -3 19 -1 14 6 -4 8 -1 7 9 -1 9 -7
29 -12 44 -12 16 0 99 -4 184 -9 l155 -9 -195 3 c-230 4 -356 23 -412 61 -43
30 -44 33 -53 110 l-7 59 19 -22 c24 -27 60 -29 88 -6 19 15 19 15 -12 9 -19
-3 -33 -1 -33 4 0 6 6 10 13 11 6 0 -4 5 -23 12 -41 14 -53 46 -21 54 18 5 19
7 7 17 -9 6 -16 31 -17 59 -3 45 -12 60 -22 35 -3 -7 -6 20 -6 61 -1 61 -4 72
-16 67 -20 -7 -19 18 1 35 8 7 13 21 11 30 -3 10 0 20 7 22 8 3 8 10 -1 25 -9
15 -9 23 -2 28 8 4 7 9 -2 15 -12 8 -12 11 0 18 11 7 12 13 4 23 -12 14 -11
76 2 118 11 37 47 73 56 58 5 -7 4 -17 -1 -22z m300 22 c0 -6 -3 -8 -6 -5 -4
3 -16 2 -26 -4 -15 -8 -23 -8 -32 2 -6 6 -6 9 -1 6 6 -3 17 -2 25 4 21 12 40
11 40 -3z m-125 -28 c-3 -5 -11 -10 -16 -10 -6 0 -7 5 -4 10 3 6 11 10 16 10
6 0 7 -4 4 -10z m62 -6 c-3 -3 -12 -4 -19 -1 -8 3 -5 6 6 6 11 1 17 -2 13 -5z
m-47 -40 c0 -2 -7 -4 -15 -4 -8 0 -15 4 -15 10 0 5 7 7 15 4 8 -4 15 -8 15
-10z m784 -29 c3 -8 1 -15 -4 -15 -6 0 -10 7 -10 15 0 8 2 15 4 15 2 0 6 -7
10 -15z m-824 -15 c0 -5 -5 -10 -11 -10 -5 0 -7 5 -4 10 3 6 8 10 11 10 2 0 4
-4 4 -10z m40 -23 c11 -5 9 -6 -4 -4 -11 1 -21 9 -23 17 -3 10 -2 11 4 4 4 -6
15 -14 23 -17z m-84 -6 c-3 -5 -16 -11 -28 -14 -22 -6 -22 -5 -4 8 22 17 40
20 32 6z m829 -9 c-3 -3 -11 0 -18 7 -9 10 -8 11 6 5 10 -3 15 -9 12 -12z
m-438 2 c-3 -3 -12 -4 -19 -1 -8 3 -5 6 6 6 11 1 17 -2 13 -5z m-232 -14 c3
-5 2 -10 -4 -10 -5 0 -13 5 -16 10 -3 6 -2 10 4 10 5 0 13 -4 16 -10z m695
-15 c-7 -8 -17 -15 -23 -15 -6 0 -2 7 9 15 25 19 30 19 14 0z m25 -144 c-6 -5
-25 10 -25 20 0 5 6 4 14 -3 8 -7 12 -15 11 -17z m-348 -91 c9 0 14 -2 11 -5
-10 -10 -58 7 -58 20 0 7 -6 16 -12 18 -10 4 -9 8 2 16 12 8 18 5 28 -19 6
-17 20 -30 29 -30z m372 44 c8 -7 -48 -16 -59 -9 -19 12 1 25 28 19 15 -4 29
-8 31 -10z m-516 -51 c-7 -2 -21 -2 -30 0 -10 3 -4 5 12 5 17 0 24 -2 18 -5z
m451 -205 c-3 -4 -9 -8 -15 -8 -5 0 -9 4 -9 8 0 5 7 9 15 9 8 0 12 -4 9 -9z
m46 -13 c-7 -9 -15 -13 -17 -11 -7 7 7 26 19 26 6 0 6 -6 -2 -15z m-530 -24
c0 -4 -5 -12 -11 -18 -8 -8 0 -12 25 -15 20 -2 36 0 36 4 0 4 9 8 20 8 11 0
20 -5 20 -11 0 -6 9 -8 23 -4 20 5 20 5 -3 -9 -14 -8 -27 -11 -30 -6 -3 4 -17
7 -33 7 -19 -2 -26 -6 -22 -16 4 -11 1 -10 -13 2 -10 9 -23 17 -29 17 -5 0
-10 13 -10 29 0 20 4 28 14 24 7 -3 13 -8 13 -12z m90 -2 c0 -14 -47 -10 -53
4 -4 10 3 12 24 9 16 -2 29 -8 29 -13z m-152 -14 c9 -20 9 -25 -2 -25 -8 0
-23 -3 -33 -7 -17 -6 -17 -6 0 14 25 29 21 34 -18 17 -19 -7 -42 -14 -52 -13
-10 0 5 9 32 19 64 24 60 24 73 -5z m272 0 c17 -9 30 -17 30 -18 0 -1 -14 -3
-30 -4 -19 -1 -38 5 -50 17 -20 20 -20 20 0 20 12 0 34 -7 50 -15z m284 0 c-4
-8 -11 -15 -16 -15 -6 0 -5 6 2 15 7 8 14 15 16 15 2 0 1 -7 -2 -15z m-17 -77
c-2 -13 -4 -5 -4 17 -1 22 1 32 4 23 2 -10 2 -28 0 -40z m-607 33 c0 -15 -18
-23 -25 -11 -4 6 -11 8 -16 5 -5 -4 -9 -1 -9 4 0 6 11 11 25 11 14 0 25 -4 25
-9z m-37 -39 c-5 -11 -2 -14 10 -9 14 5 15 4 4 -13 -17 -28 -35 -25 -29 5 3
20 0 25 -17 25 -18 0 -20 -3 -11 -19 13 -25 13 -41 -1 -18 -6 9 -15 14 -21 11
-6 -4 -8 -3 -5 3 4 6 0 14 -9 17 -13 5 -14 9 -5 20 17 20 92 1 84 -22z m240
24 c4 -10 1 -13 -9 -9 -15 6 -19 23 -5 23 5 0 11 -7 14 -14z m252 -34 c-3 -3
-16 5 -28 17 l-22 23 28 -17 c15 -10 25 -20 22 -23z m-405 18 c0 -5 -12 -10
-27 -9 l-28 1 25 8 c14 4 26 8 28 9 1 1 2 -3 2 -9z m243 3 c-13 -2 -35 -2 -50
0 -16 2 -5 4 22 4 28 0 40 -2 28 -4z m-498 -33 c3 -5 -1 -10 -10 -10 -9 0 -13
5 -10 10 3 6 8 10 10 10 2 0 7 -4 10 -10z m38 -7 c-5 -12 -3 -14 7 -8 8 5 11
3 8 -6 -6 -17 -58 -25 -58 -9 0 7 8 9 21 5 15 -5 19 -4 15 4 -4 6 -4 16 -1 21
10 16 15 12 8 -7z m662 7 c3 -5 2 -10 -4 -10 -5 0 -13 5 -16 10 -3 6 -2 10 4
10 5 0 13 -4 16 -10z m84 -34 c-13 -13 -35 -27 -49 -31 -17 -4 -11 2 18 20 23
14 42 31 42 37 0 6 3 8 7 4 4 -3 -4 -17 -18 -30z m-122 -52 c-3 -3 -12 -4 -19
-1 -8 3 -5 6 6 6 11 1 17 -2 13 -5z m-59 -11 c-10 -2 -26 -2 -35 0 -10 3 -2 5
17 5 19 0 27 -2 18 -5z m-65 -10 c-7 -2 -21 -2 -30 0 -10 3 -4 5 12 5 17 0 24
-2 18 -5z"/>
<path d="M3446 1930 c7 -7 19 -7 35 -1 23 9 22 10 -10 10 -24 1 -32 -2 -25 -9z"/>
<path d="M3370 1890 c0 -5 5 -10 10 -10 6 0 10 5 10 10 0 6 -4 10 -10 10 -5 0
-10 -4 -10 -10z"/>
<path d="M3230 1874 c-27 -12 -32 -17 -20 -24 8 -5 20 -10 25 -10 6 0 3 4 -4
9 -12 8 -9 11 12 16 15 4 27 11 27 16 0 11 2 11 -40 -7z"/>
<path d="M3545 1940 c3 -5 8 -10 11 -10 2 0 4 5 4 10 0 6 -5 10 -11 10 -5 0
-7 -4 -4 -10z"/>
<path d="M3120 1805 c-7 -9 -11 -17 -9 -20 3 -2 10 5 17 15 14 24 10 26 -8 5z"/>
<path d="M4077 1589 c-10 -6 -21 -8 -24 -5 -4 3 -13 1 -20 -6 -9 -7 -45 -11
-94 -10 -56 1 -79 -2 -79 -11 0 -7 -5 -5 -10 5 -6 10 -18 14 -30 11 -35 -9 -3
-35 40 -32 19 2 41 0 47 -4 6 -4 14 -3 18 3 4 7 12 7 26 0 14 -8 19 -7 19 1 0
9 3 9 14 0 10 -9 15 -9 18 0 2 6 17 11 33 12 17 1 38 10 48 21 25 28 24 32 -6
15z"/>
<path d="M3363 1563 c9 -2 23 -2 30 0 6 3 -1 5 -18 5 -16 0 -22 -2 -12 -5z"/>
<path d="M3440 1550 c-11 -7 -5 -9 22 -7 20 1 34 5 31 10 -6 10 -35 9 -53 -3z"/>
<path d="M3530 1546 c0 -23 29 -27 40 -6 9 17 7 20 -15 20 -15 0 -25 -6 -25
-14z"/>
<path d="M3590 1552 c0 -14 11 -21 26 -15 21 8 17 23 -6 23 -11 0 -20 -4 -20
-8z"/>
<path d="M3643 1545 c5 -15 95 -17 123 -2 23 12 18 13 -50 13 -44 -1 -75 -5
-73 -11z"/>
<path d="M3120 1531 c0 -7 -4 -9 -10 -6 -5 3 -10 0 -10 -7 0 -7 -3 -23 -6 -35
-5 -17 -2 -23 10 -23 9 0 19 -7 23 -16 3 -8 12 -13 20 -10 8 3 40 -3 71 -13
76 -26 118 -30 114 -12 -2 7 5 22 14 32 9 11 13 19 8 19 -5 0 -26 4 -46 9 -41
10 -44 -7 -5 -28 14 -8 16 -10 4 -6 -10 3 -30 5 -44 5 -20 0 -24 4 -20 20 6
22 0 25 -22 11 -7 -5 -10 -14 -7 -20 4 -6 3 -11 -2 -11 -15 0 -22 26 -10 38 8
8 -4 13 -41 18 -42 5 -49 9 -40 21 7 7 9 16 5 20 -3 3 -6 1 -6 -6z"/>
<path d="M3238 1379 c-8 -6 -9 -9 -2 -9 7 0 14 -9 17 -20 4 -15 0 -20 -14 -20
-25 0 -24 -12 1 -28 14 -9 20 -9 20 -1 0 7 7 17 17 24 17 13 9 40 -9 29 -7 -4
-8 -2 -4 5 4 6 11 9 16 6 5 -3 11 -1 14 4 8 12 -39 20 -56 10z"/>
<path d="M3306 1346 c3 -7 -2 -20 -10 -29 -23 -22 -20 -30 9 -23 14 4 25 2 25
-4 0 -19 28 -10 33 10 6 22 -8 28 -16 8 -6 -18 -18 -5 -20 21 -1 11 -7 23 -14
25 -7 3 -10 -1 -7 -8z"/>
<path d="M3157 1324 c3 -9 0 -20 -8 -24 -7 -5 -10 -12 -6 -17 10 -9 27 16 27
40 0 9 -4 17 -10 17 -5 0 -7 -7 -3 -16z"/>
<path d="M3240 1270 c0 -5 14 -10 31 -10 17 0 28 4 24 10 -3 6 -17 10 -31 10
-13 0 -24 -4 -24 -10z"/>
<path d="M3418 1272 c-21 -2 -38 -8 -38 -14 0 -10 66 -5 78 7 9 8 -1 10 -40 7z"/>
<path d="M3540 1245 c0 -8 7 -15 15 -15 8 0 15 4 15 9 0 5 -7 11 -15 15 -9 3
-15 0 -15 -9z"/>
<path d="M3508 1243 c7 -3 16 -2 19 1 4 3 -2 6 -13 5 -11 0 -14 -3 -6 -6z"/>
<path d="M3590 1242 c0 -12 36 -20 75 -17 17 2 34 4 39 4 5 1 7 4 4 7 -11 10
-118 15 -118 6z"/>
<path d="M3820 1230 c-11 -7 -7 -10 18 -10 17 0 32 5 32 10 0 13 -30 13 -50 0z"/>
<path d="M3140 1180 c0 -6 7 -10 15 -10 8 0 15 2 15 4 0 2 -7 6 -15 10 -8 3
-15 1 -15 -4z"/>
<path d="M3165 1080 c3 -5 8 -10 11 -10 2 0 4 5 4 10 0 6 -5 10 -11 10 -5 0
-7 -4 -4 -10z"/>
<path d="M3202 1059 c2 -7 10 -15 17 -17 8 -3 12 1 9 9 -2 7 -10 15 -17 17 -8
3 -12 -1 -9 -9z"/>
<path d="M3268 963 c7 -3 16 -2 19 1 4 3 -2 6 -13 5 -11 0 -14 -3 -6 -6z"/>
<path d="M2012 1953 c-39 -4 -41 -6 -31 -24 6 -12 8 -23 5 -27 -3 -3 -6 0 -6
8 0 10 -3 10 -16 0 -13 -11 -16 -10 -21 9 -5 20 -10 22 -42 16 -20 -4 -39 -11
-42 -17 -3 -5 -10 -10 -15 -11 -5 -1 -8 -6 -6 -10 1 -5 -6 -6 -16 -3 -12 4
-28 -2 -43 -14 l-24 -21 24 7 c21 5 22 4 10 -9 -9 -9 -20 -12 -29 -7 -17 10
-57 -9 -87 -42 -45 -49 -60 -128 -30 -165 6 -9 6 -13 -2 -13 -13 0 -5 -47 12
-67 6 -9 4 -15 -7 -19 -11 -4 -15 -13 -11 -25 4 -11 0 -26 -9 -35 -20 -20 -21
-45 -1 -38 12 5 15 -5 15 -59 0 -50 4 -66 16 -71 12 -5 15 -16 12 -46 -2 -28
0 -40 9 -40 7 0 13 -4 13 -10 0 -5 -11 -10 -25 -10 -36 0 -31 -22 10 -44 19
-10 33 -24 32 -30 -1 -7 12 -10 33 -9 19 1 28 0 20 -4 -8 -3 -17 -10 -20 -14
-10 -14 -65 7 -64 24 1 10 -4 13 -13 10 -19 -8 -8 -98 16 -132 45 -64 193 -95
446 -95 249 1 424 29 484 79 22 19 30 36 35 79 3 30 9 63 12 73 6 14 4 16 -6
6 -7 -7 -15 -31 -17 -55 -6 -63 -22 -88 -75 -115 -77 -40 -239 -56 -510 -51
-16 1 -28 6 -28 14 0 7 -5 16 -12 20 -6 4 -8 3 -5 -3 7 -12 -14 -23 -41 -23
-16 1 -15 2 1 14 9 7 17 19 17 27 -1 9 -6 7 -16 -6 -15 -20 -15 -20 -32 1 -10
11 -23 19 -30 16 -6 -2 -12 1 -12 7 0 6 7 11 16 11 8 0 12 5 9 10 -4 6 -15 8
-26 5 -19 -6 -27 9 -10 19 14 9 57 -17 55 -34 -1 -11 0 -11 3 -2 3 9 14 12 31
9 17 -3 30 1 38 11 7 10 38 22 71 28 37 8 47 12 28 13 -16 0 -47 -3 -67 -8
-42 -10 -49 -3 -18 17 11 7 20 16 20 20 0 11 -61 2 -77 -10 -7 -6 -19 -8 -27
-5 -8 3 -34 -8 -57 -25 -40 -29 -43 -30 -55 -13 -16 22 -47 125 -40 132 9 10
266 18 476 15 113 -2 234 1 268 6 60 8 64 8 73 -12 9 -20 9 -20 5 2 -2 12 0
22 5 22 5 0 9 -6 9 -14 0 -9 9 -14 20 -13 23 2 27 17 4 17 -8 0 -12 5 -8 11 3
6 16 8 29 5 15 -4 25 -1 28 8 4 10 0 12 -13 9 -16 -4 -19 0 -17 23 2 26 -1 29
-25 26 -14 -2 -29 1 -32 7 -9 14 -128 -2 -123 -17 1 -4 -2 -7 -8 -7 -5 0 -9 4
-7 9 2 5 -7 6 -20 2 -13 -3 -39 -6 -58 -6 -27 0 -31 -3 -20 -10 13 -9 13 -11
0 -20 -21 -14 -55 -8 -54 10 1 12 -18 15 -108 17 -60 1 -112 4 -115 6 -2 3 -6
13 -7 23 -2 11 -13 19 -32 21 -18 2 -24 0 -16 -5 7 -5 10 -16 6 -25 -7 -20 -5
-20 -40 -2 -20 10 -23 15 -11 15 9 0 17 5 17 10 0 19 24 37 43 32 11 -3 17 0
15 8 -2 7 8 16 22 20 22 5 19 8 -25 19 -27 7 -58 15 -68 18 -14 4 -17 11 -12
30 5 23 4 25 -19 21 -15 -3 -26 -1 -26 3 0 13 74 11 88 -3 6 -6 50 -12 98 -14
48 -2 90 -7 94 -11 4 -4 11 -19 15 -33 4 -17 3 -21 -3 -11 -7 10 -11 10 -17 1
-9 -15 -1 -22 29 -25 25 -3 40 15 30 38 -3 6 -23 24 -44 39 -22 15 -40 32 -40
38 0 15 33 12 55 -4 11 -8 26 -12 35 -9 11 4 12 3 2 -4 -10 -8 -10 -15 3 -39
8 -16 15 -26 15 -21 0 4 11 0 24 -8 21 -14 24 -14 30 1 4 11 2 15 -8 11 -17
-7 -36 11 -36 34 0 13 7 11 31 -12 37 -34 55 -37 62 -9 3 13 11 18 20 14 8 -3
18 0 23 7 5 9 2 10 -9 6 -9 -3 -17 -1 -19 4 -2 5 -13 1 -24 -9 -21 -20 -21
-20 -47 14 -33 41 -33 42 -1 42 16 0 23 -5 20 -13 -5 -13 12 -35 27 -35 5 0 7
14 4 30 -5 25 -3 30 12 30 12 0 21 -10 25 -25 5 -18 14 -25 34 -27 65 -3 136
8 140 22 2 5 12 10 23 10 23 0 24 9 4 24 -12 9 -11 14 5 35 11 13 20 18 20 11
0 -6 7 -18 15 -26 13 -14 15 -14 15 0 0 9 -4 16 -9 16 -5 0 -14 13 -21 29 -9
23 -16 28 -33 23 -20 -5 -21 -4 -8 12 8 9 16 14 19 11 3 -3 14 2 24 12 23 20
24 75 2 108 -20 31 -31 32 -29 3 2 -13 7 -22 13 -21 5 1 12 -6 15 -17 3 -13 1
-17 -9 -13 -8 3 -14 0 -14 -6 0 -6 7 -11 15 -11 8 0 15 -7 15 -16 0 -8 -4 -12
-10 -9 -5 3 -10 2 -10 -3 0 -5 -16 -17 -36 -27 -27 -13 -38 -14 -44 -5 -5 8
-9 8 -13 -3 -3 -9 1 -18 10 -22 28 -10 -2 -29 -34 -20 -25 7 -26 8 -8 15 11 4
-55 6 -147 3 -108 -2 -169 0 -173 7 -3 5 -11 10 -16 10 -6 0 -7 -5 -4 -10 8
-13 -82 -11 -107 2 -10 5 -18 6 -18 2 0 -4 8 -13 18 -20 16 -12 16 -13 -4 -14
-22 0 -39 24 -28 41 3 5 -4 9 -15 9 -13 0 -19 -5 -15 -14 4 -9 -3 -13 -20 -13
-14 0 -23 4 -20 9 3 5 -5 6 -19 3 -27 -7 -59 6 -94 37 l-22 20 6 -21 c3 -11 9
-21 14 -21 5 0 9 -4 9 -9 0 -4 -11 -6 -24 -4 -18 4 -23 11 -21 29 1 16 -3 24
-12 24 -11 0 -13 -7 -9 -25 6 -23 5 -24 -23 -14 -17 6 -35 17 -41 24 -6 8 -19
11 -28 8 -13 -5 -14 -3 -5 7 8 8 16 9 29 2 19 -11 74 3 86 22 5 7 17 7 41 -2
41 -15 47 -15 47 -2 0 6 -9 10 -21 10 -11 0 -18 4 -15 9 3 5 -7 11 -23 13 -20
3 -33 -1 -42 -13 -9 -13 -16 -15 -29 -7 -12 8 -27 8 -51 0 -31 -11 -32 -10
-15 3 11 8 37 15 58 15 37 0 47 15 23 32 -6 5 -5 8 3 8 7 0 10 5 6 12 -4 6 -3
8 3 5 6 -4 16 0 23 8 7 9 21 13 31 10 11 -4 19 -1 19 5 0 7 8 10 20 7 13 -3
20 0 20 9 0 18 37 38 45 24 3 -6 -4 -10 -16 -10 -16 0 -20 -3 -13 -10 7 -7 19
-8 37 -1 25 10 31 7 28 -12 -1 -5 3 -6 8 -3 5 4 12 0 15 -6 5 -10 7 -10 12 0
8 17 24 15 24 -3 0 -8 7 -15 15 -15 13 0 12 4 -4 21 -11 12 -24 18 -30 15 -5
-4 -9 2 -8 14 1 21 12 26 22 10 7 -11 35 -2 35 11 0 4 -7 6 -16 2 -12 -4 -15
-2 -12 8 3 8 13 13 23 11 10 -2 22 2 26 10 7 10 9 9 9 -4 0 -11 11 -20 28 -24
15 -3 40 -10 56 -15 38 -12 39 -12 24 5 -7 8 -17 12 -22 9 -4 -3 -5 4 -2 15 8
25 -8 37 -31 22 -15 -9 -14 -10 6 -4 16 4 21 3 17 -5 -4 -6 -18 -11 -32 -11
-14 0 -22 4 -19 10 3 6 1 10 -4 10 -6 0 -11 5 -11 11 0 7 10 9 25 7 14 -3 28
-1 31 4 4 6 9 6 14 -1 9 -16 40 -3 40 16 0 13 -2 13 -17 2 -14 -12 -16 -12
-11 1 7 21 43 19 43 -2 0 -9 4 -20 9 -25 5 -4 6 -3 2 5 -4 7 -1 12 7 12 11 0
13 -7 10 -22 -5 -23 -5 -23 10 -3 8 11 19 17 23 12 4 -4 2 -7 -5 -7 -7 0 -9
-5 -5 -11 4 -8 9 -7 14 2 7 10 12 10 23 1 11 -9 14 -9 14 3 0 7 -3 13 -6 12
-3 -1 -8 2 -11 7 -9 16 59 14 72 -2 11 -13 9 -14 -12 -9 -14 4 -19 4 -12 1 17
-8 15 -27 -3 -20 -22 8 -18 -2 6 -15 12 -6 19 -7 15 -1 -3 5 3 17 14 27 22 20
55 13 46 -10 -3 -8 -1 -15 4 -15 6 0 10 9 10 20 0 14 5 18 16 13 13 -5 13 -7
2 -14 -10 -7 -9 -9 5 -9 9 0 17 4 17 10 0 14 -34 29 -71 32 -19 1 -39 5 -44 9
-14 10 -74 8 -81 -3 -3 -4 -13 -8 -22 -8 -15 1 -15 2 2 15 19 15 19 15 -3 15
-12 0 -19 -4 -16 -10 3 -5 2 -10 -4 -10 -5 0 -14 6 -18 13 -4 8 -21 17 -36 21
-19 4 -26 3 -22 -4 3 -5 -1 -10 -10 -10 -9 0 -13 5 -10 10 6 10 -78 11 -173 3z
m78 -7 c0 -3 -4 -8 -10 -11 -5 -3 -10 -1 -10 4 0 6 5 11 10 11 6 0 10 -2 10
-4z m-63 -22 c-3 -3 -12 -4 -19 -1 -8 3 -5 6 6 6 11 1 17 -2 13 -5z m108 -4
c-3 -5 -12 -10 -18 -10 -7 0 -6 4 3 10 19 12 23 12 15 0z m45 6 c0 -3 -4 -8
-10 -11 -5 -3 -10 -1 -10 4 0 6 5 11 10 11 6 0 10 -2 10 -4z m-300 -41 c0 -8
-4 -15 -10 -15 -5 0 -10 7 -10 15 0 8 5 15 10 15 6 0 10 -7 10 -15z m49 6 c7
-5 9 -11 5 -14 -5 -3 -15 1 -22 9 -14 16 -5 18 17 5z m101 -1 c0 -5 -8 -11
-17 -11 -33 -2 -38 -4 -38 -14 0 -5 6 -9 13 -7 6 2 12 -5 12 -15 0 -15 2 -16
10 -3 8 13 10 12 10 -2 0 -22 -9 -23 -38 -2 -12 8 -26 13 -31 9 -5 -3 -12 -1
-16 4 -7 13 41 45 55 36 5 -3 10 -1 10 4 0 6 7 11 15 11 8 0 15 -4 15 -10z
m74 -5 c-4 -8 -8 -15 -10 -15 -2 0 -4 7 -4 15 0 8 4 15 10 15 5 0 7 -7 4 -15z
m-199 -24 c-3 -6 -11 -11 -16 -11 -5 0 -4 6 3 14 14 16 24 13 13 -3z m155 9
c0 -5 -10 -10 -22 -10 -19 0 -20 2 -8 10 19 13 30 13 30 0z m-146 -44 c-7 -17
-34 -22 -34 -6 0 6 7 10 15 10 8 0 15 5 15 12 0 6 2 9 5 6 3 -3 3 -13 -1 -22z
m-89 -10 c14 -14 10 -26 -8 -26 -6 0 -7 3 -4 7 4 3 2 12 -4 20 -15 17 -2 17
16 -1z m-25 -21 c0 -8 -4 -15 -10 -15 -5 0 -7 7 -4 15 4 8 8 15 10 15 2 0 4
-7 4 -15z m-30 -27 c0 -4 -4 -8 -9 -8 -6 0 -12 4 -15 8 -3 5 1 9 9 9 8 0 15
-4 15 -9z m-63 -40 c-3 -7 -5 -2 -5 12 0 14 2 19 5 13 2 -7 2 -19 0 -25z m63
12 c0 -5 -5 -10 -11 -10 -5 0 -7 5 -4 10 3 6 8 10 11 10 2 0 4 -4 4 -10z m10
-59 c0 -12 -28 -22 -34 -12 -3 5 -3 11 1 15 9 9 33 7 33 -3z m523 -108 c-13
-2 -33 -2 -45 0 -13 2 -3 4 22 4 25 0 35 -2 23 -4z m327 -8 c-7 -8 -16 -13
-20 -10 -4 3 -28 -1 -53 -9 -25 -7 -51 -10 -58 -5 -8 5 -16 3 -21 -4 -4 -6
-10 -8 -13 -5 -17 16 11 28 66 28 32 0 59 4 59 8 0 4 12 9 26 10 22 2 25 0 14
-13z m-230 -4 c0 -4 12 -6 26 -3 20 3 25 2 19 -7 -4 -7 -13 -10 -19 -8 -7 3
-19 1 -27 -3 -8 -5 -19 -4 -26 2 -19 15 -16 28 7 28 11 0 20 -4 20 -9z m-370
-11 c0 -5 -4 -10 -9 -10 -6 0 -13 5 -16 10 -3 6 1 10 9 10 9 0 16 -4 16 -10z
m90 -15 c-12 -14 -40 -10 -40 5 0 10 31 18 43 12 4 -2 3 -10 -3 -17z m206 10
c-23 -18 -81 -21 -70 -4 3 6 17 9 30 6 14 -2 27 0 30 4 3 5 11 9 17 9 7 0 3
-7 -7 -15z m-154 -7 c-9 -9 -15 -9 -24 0 -9 9 -7 12 12 12 19 0 21 -3 12 -12z
m43 2 c-3 -5 -10 -10 -16 -10 -5 0 -9 5 -9 10 0 6 7 10 16 10 8 0 12 -4 9 -10z
m395 -25 c0 -15 -15 -35 -27 -35 -8 0 -11 5 -8 10 3 6 1 10 -5 10 -20 0 -2 16
19 17 12 1 21 0 21 -2z m-893 -27 c21 -8 33 -19 33 -30 0 -10 5 -18 10 -18 6
0 9 5 8 12 -2 6 6 14 17 16 16 4 17 2 7 -11 -11 -12 -8 -15 17 -19 21 -3 28
-1 24 9 -6 15 43 18 66 4 19 -12 -3 -24 -32 -16 l-22 6 23 -17 c12 -9 22 -21
22 -26 0 -12 -87 1 -122 18 -14 7 -40 15 -56 16 -17 1 -28 6 -26 10 3 4 -7 10
-21 14 -29 7 -32 19 -7 33 22 13 20 13 59 -1z m801 -7 c3 -8 -1 -12 -9 -9 -7
2 -15 10 -17 17 -3 8 1 12 9 9 7 -2 15 -10 17 -17z m-418 -11 c0 -5 -12 -10
-26 -10 -14 0 -23 4 -19 10 3 6 15 10 26 10 10 0 19 -4 19 -10z m-50 -100 c0
-5 -4 -10 -10 -10 -5 0 -10 5 -10 10 0 6 5 10 10 10 6 0 10 -4 10 -10z m-333
-52 c-3 -8 -6 -5 -6 6 -1 11 2 17 5 13 3 -3 4 -12 1 -19z m260 0 c-3 -8 -6 -5
-6 6 -1 11 2 17 5 13 3 -3 4 -12 1 -19z m103 -39 c0 -5 -7 -9 -15 -9 -9 0 -12
6 -9 15 6 15 24 11 24 -6z m-247 -16 c-7 -2 -21 -2 -30 0 -10 3 -4 5 12 5 17
0 24 -2 18 -5z m172 -2 c-6 -5 -21 -10 -35 -11 -44 -4 -47 3 -5 10 22 4 42 8
45 9 2 0 0 -3 -5 -8z m639 -2 c-6 -11 -54 -17 -54 -8 0 5 -7 9 -15 9 -8 0 -15
-5 -15 -10 0 -6 -13 -9 -29 -8 -16 1 -27 6 -25 10 3 5 9 6 14 3 5 -3 12 -1 15
5 4 6 30 10 60 8 29 -1 51 -6 49 -9z m-444 -29 c0 -6 -11 -9 -25 -7 -37 5 -42
17 -7 17 18 0 32 -5 32 -10z m40 0 c0 -5 -7 -7 -15 -4 -8 4 -15 8 -15 10 0 2
7 4 15 4 8 0 15 -4 15 -10z m335 0 c-3 -5 -12 -10 -18 -10 -7 0 -6 4 3 10 19
12 23 12 15 0z m-163 -12 c-9 -9 -15 -9 -24 0 -9 9 -7 12 12 12 19 0 21 -3 12
-12z m-434 -176 c6 -18 -15 -14 -22 4 -4 10 -1 14 6 12 6 -2 14 -10 16 -16z"/>
<path d="M2220 1884 c0 -2 9 -8 20 -14 11 -6 20 -7 20 -2 0 6 -9 12 -20 15
-11 3 -20 3 -20 1z"/>
<path d="M2530 1872 c0 -6 9 -12 20 -15 11 -3 20 -3 20 -1 0 2 -9 8 -20 14
-11 6 -20 7 -20 2z"/>
<path d="M2493 1843 c9 -2 23 -2 30 0 6 3 -1 5 -18 5 -16 0 -22 -2 -12 -5z"/>
<path d="M2577 1843 c-4 -3 -7 -11 -7 -17 0 -6 5 -5 12 2 6 6 9 14 7 17 -3 3
-9 2 -12 -2z"/>
<path d="M2600 1815 c0 -2 10 -10 23 -16 20 -11 21 -11 8 4 -13 16 -31 23 -31
12z"/>
<path d="M1926 1792 c-4 -7 -14 -11 -22 -8 -8 3 -14 -1 -14 -9 0 -17 -9 -19
-30 -5 -9 5 -19 5 -27 -2 -15 -12 -18 -42 -3 -33 6 4 8 10 6 14 -3 4 1 8 10 8
10 0 12 -7 8 -21 -4 -15 -3 -17 4 -8 13 19 46 11 52 -12 5 -19 32 -37 29 -19
-1 4 -1 19 0 33 1 23 2 23 12 6 9 -15 13 -16 20 -5 5 8 9 19 9 24 0 6 -5 3
-10 -5 -8 -13 -10 -13 -10 2 0 9 7 21 16 26 15 8 15 10 0 15 -10 4 -16 1 -16
-8 0 -21 -18 -19 -22 3 -3 13 -5 14 -12 4z m7 -42 c-7 -28 -13 -25 -13 6 0 14
4 23 9 20 5 -3 7 -15 4 -26z"/>
<path d="M2270 1790 c0 -5 5 -10 10 -10 6 0 10 5 10 10 0 6 -4 10 -10 10 -5 0
-10 -4 -10 -10z"/>
<path d="M2512 1791 c-9 -5 -2 -8 20 -9 23 -1 28 2 18 8 -18 12 -22 12 -38 1z"/>
<path d="M1995 1750 c3 -5 12 -7 20 -3 21 7 19 13 -6 13 -11 0 -18 -4 -14 -10z"/>
<path d="M2100 1740 c0 -5 5 -10 11 -10 5 0 7 5 4 10 -3 6 -8 10 -11 10 -2 0
-4 -4 -4 -10z"/>
<path d="M2570 1726 c0 -8 7 -16 15 -20 13 -4 14 -2 5 14 -13 23 -20 26 -20 6z"/>
<path d="M2072 1708 c2 -6 10 -13 16 -14 7 -1 8 0 2 3 -5 2 -8 9 -4 14 3 5 0
9 -6 9 -7 0 -10 -5 -8 -12z"/>
<path d="M2200 1710 c0 -5 5 -10 11 -10 5 0 7 5 4 10 -3 6 -8 10 -11 10 -2 0
-4 -4 -4 -10z"/>
<path d="M2614 1683 c5 -16 2 -22 -11 -25 -10 -2 -13 -6 -8 -10 6 -3 19 0 30
8 18 14 18 15 1 32 -17 16 -18 16 -12 -5z"/>
<path d="M1984 1674 c3 -8 6 -20 6 -25 0 -5 4 -9 8 -9 14 0 8 39 -6 45 -10 4
-12 0 -8 -11z"/>
<path d="M2258 1683 c7 -3 16 -2 19 1 4 3 -2 6 -13 5 -11 0 -14 -3 -6 -6z"/>
<path d="M2175 1670 c-3 -5 3 -10 15 -10 12 0 18 5 15 10 -3 6 -10 10 -15 10
-5 0 -12 -4 -15 -10z"/>
<path d="M1945 1660 c-4 -6 3 -10 14 -10 25 0 27 6 6 13 -8 4 -17 2 -20 -3z"/>
<path d="M2120 1660 c0 -5 5 -10 11 -10 5 0 7 5 4 10 -3 6 -8 10 -11 10 -2 0
-4 -4 -4 -10z"/>
<path d="M1870 1656 c0 -2 7 -7 16 -10 8 -3 12 -2 9 4 -6 10 -25 14 -25 6z"/>
<path d="M2661 1520 c0 -8 3 -21 8 -28 6 -10 10 -10 21 3 10 12 10 15 -3 15
-8 0 -18 6 -20 13 -4 8 -6 7 -6 -3z"/>
<path d="M2626 1453 c4 -14 14 -18 41 -18 20 0 38 6 40 13 3 6 -2 12 -10 12
-8 0 -28 3 -45 6 -27 5 -30 4 -26 -13z"/>
<path d="M2503 1413 c9 -2 23 -2 30 0 6 3 -1 5 -18 5 -16 0 -22 -2 -12 -5z"/>
<path d="M2155 1400 c-4 -6 5 -10 19 -10 14 0 26 5 26 10 0 6 -9 10 -19 10
-11 0 -23 -4 -26 -10z"/>
<path d="M2373 1383 c9 -2 23 -2 30 0 6 3 -1 5 -18 5 -16 0 -22 -2 -12 -5z"/>
<path d="M2651 1364 c0 -11 3 -14 6 -6 3 7 2 16 -1 19 -3 4 -6 -2 -5 -13z"/>
<path d="M2080 1345 c0 -8 7 -15 15 -15 9 0 12 6 9 15 -4 8 -10 15 -15 15 -5
0 -9 -7 -9 -15z"/>
<path d="M2185 1330 c3 -5 8 -10 11 -10 2 0 4 5 4 10 0 6 -5 10 -11 10 -5 0
-7 -4 -4 -10z"/>
<path d="M2628 1319 c-10 -10 -16 -19 -14 -19 2 0 11 -3 19 -6 10 -4 15 2 15
20 0 14 -1 26 -2 25 0 0 -9 -9 -18 -20z"/>
<path d="M2330 1260 c0 -5 5 -10 11 -10 5 0 7 5 4 10 -3 6 -8 10 -11 10 -2 0
-4 -4 -4 -10z"/>
<path d="M2676 1184 c-10 -25 1 -29 14 -5 6 12 7 21 1 21 -5 0 -12 -7 -15 -16z"/>
<path d="M2184 1171 c-2 -2 6 -12 17 -22 11 -9 20 -21 19 -25 -1 -3 10 -14 25
-24 19 -13 23 -20 14 -25 -7 -5 -18 0 -26 11 -14 19 -15 19 -11 -1 3 -17 12
-20 65 -21 35 -1 60 3 57 7 -3 5 -18 9 -35 9 -26 0 -32 6 -27 28 0 4 11 6 22
4 20 -2 20 -2 2 9 -15 9 -24 9 -38 0 -16 -10 -18 -8 -18 13 0 15 7 26 18 28 9
3 -5 6 -31 9 -27 2 -50 2 -53 0z"/>
<path d="M2043 1152 c-28 -10 -55 -20 -59 -24 -13 -14 30 -8 56 7 36 21 43 18
24 -10 -9 -14 -12 -25 -6 -25 6 0 13 4 17 10 3 5 13 6 22 3 13 -5 15 -3 9 13
-5 10 -9 25 -9 32 0 6 -1 12 -1 11 -1 -1 -24 -8 -53 -17z"/>
<path d="M2131 1149 c13 -11 18 -18 12 -14 -8 4 -13 0 -13 -9 0 -9 8 -16 18
-16 10 0 24 -9 32 -20 20 -27 26 -25 25 8 0 20 -6 28 -23 30 -17 3 -21 8 -17
23 5 16 1 19 -25 19 l-32 0 23 -21z m64 -39 c3 -5 1 -10 -4 -10 -6 0 -11 5
-11 10 0 6 2 10 4 10 3 0 8 -4 11 -10z"/>
<path d="M2295 1150 c3 -5 13 -10 21 -10 8 0 14 -7 14 -15 0 -10 10 -15 34
-15 50 0 52 15 6 34 -45 18 -84 21 -75 6z"/>
<path d="M2441 1074 c15 -18 63 -44 81 -44 7 1 -4 10 -24 20 -20 11 -40 24
-43 30 -3 5 -11 10 -17 10 -6 0 -5 -6 3 -16z"/>
<path d="M2398 1063 c6 -2 18 -2 25 0 6 3 1 5 -13 5 -14 0 -19 -2 -12 -5z"/>
</g>
</svg>
